<svg width="1017" height="140" viewBox="0 0 1017 140" fill="none" xmlns="http://www.w3.org/2000/svg">
<path d="M76.8654 12.2375C63.9954 8.0099 51.661 9.62891 37.8679 15.6857C11.0369 27.4675 -1.43324 58.4696 10.2705 82.0433C21.9743 105.617 51.6675 114.712 78.4985 102.93C101.088 93.0111 113.075 74.677 109.403 53.9381" stroke="#5B6EFF" stroke-width="11.5"/>
<path d="M120.281 101.574C133.07 105.893 145.286 104.347 158.918 98.3613C185.434 86.7177 197.577 55.7153 185.807 32.0087C174.037 8.30221 144.536 -1.00183 118.02 10.6418C95.6957 20.4446 83.942 38.7499 87.7283 59.5642" stroke="#5B6EFF" stroke-width="11.5"/>
<path d="M107.762 41.2754C113.063 41.2754 117.362 45.4233 117.362 50.54C117.362 55.6567 113.063 59.8047 107.762 59.8047C102.46 59.8045 98.1619 55.6566 98.1619 50.54C98.1619 45.4235 102.46 41.2756 107.762 41.2754ZM107.362 47.2754C105.595 47.2754 104.162 48.6579 104.162 50.3633C104.162 52.0688 105.595 53.4521 107.362 53.4521C109.129 53.452 110.562 52.0688 110.562 50.3633C110.562 48.6579 109.129 47.2755 107.362 47.2754Z" fill="#5B6EFF"/>
<path d="M82.7615 5.27536C88.0635 5.27536 92.3621 9.42331 92.3621 14.54C92.3621 19.6567 88.0634 23.8047 82.7615 23.8047C77.4598 23.8045 73.1619 19.6566 73.1619 14.54C73.1619 9.42343 77.4598 5.27556 82.7615 5.27536ZM82.3621 11.2754C80.5949 11.2754 79.1621 12.6578 79.1619 14.3633C79.1619 16.0688 80.5948 17.4521 82.3621 17.4521C84.1293 17.452 85.5623 16.0688 85.5623 14.3633C85.5621 12.6579 84.1292 11.2755 82.3621 11.2754Z" fill="#5B6EFF"/>
<path d="M88.7615 54.2754C94.0635 54.2754 98.3621 58.4233 98.3621 63.54C98.3621 68.6567 94.0634 72.8047 88.7615 72.8047C83.4598 72.8045 79.1619 68.6566 79.1619 63.54C79.1619 58.4234 83.4598 54.2756 88.7615 54.2754ZM88.3621 60.2754C86.5949 60.2754 85.1621 61.6578 85.1619 63.3633C85.1619 65.0688 86.5948 66.4521 88.3621 66.4521C90.1293 66.452 91.5623 65.0688 91.5623 63.3633C91.5621 61.6579 90.1292 60.2755 88.3621 60.2754Z" fill="#5B6EFF"/>
<path d="M113.762 90.2754C119.063 90.2754 123.362 94.4233 123.362 99.54C123.362 104.657 119.063 108.805 113.762 108.805C108.46 108.804 104.162 104.657 104.162 99.54C104.162 94.4234 108.46 90.2756 113.762 90.2754ZM113.362 96.2754C111.595 96.2754 110.162 97.6578 110.162 99.3633C110.162 101.069 111.595 102.452 113.362 102.452C115.129 102.452 116.562 101.069 116.562 99.3633C116.562 97.6579 115.129 96.2755 113.362 96.2754Z" fill="#5B6EFF"/>
<path d="M292.194 41.6595C289.634 34.9182 285.367 29.5422 279.394 25.5315C273.506 21.5208 266.508 19.5155 258.402 19.5155C251.319 19.5155 244.919 21.1795 239.202 24.5075C233.484 27.8355 228.962 32.5715 225.634 38.7155C222.306 44.8595 220.642 52.0275 220.642 60.2195C220.642 68.4115 222.306 75.5795 225.634 81.7235C228.962 87.8675 233.484 92.6035 239.202 95.9315C244.919 99.1742 251.319 100.796 258.402 100.796C265.228 100.796 271.415 99.2595 276.962 96.1875C282.508 93.1155 286.946 88.7635 290.274 83.1315C293.602 77.4142 295.436 70.7582 295.778 63.1635H255.714V58.2995H301.666V62.1395C301.41 70.5022 299.404 78.0115 295.65 84.6675C291.895 91.3235 286.775 96.5288 280.29 100.284C273.804 104.038 266.508 105.916 258.402 105.916C250.124 105.916 242.658 103.996 236.002 100.156C229.346 96.2302 224.14 90.8115 220.386 83.8995C216.631 76.9022 214.754 69.0088 214.754 60.2195C214.754 51.3448 216.631 43.4515 220.386 36.5395C224.14 29.5422 229.346 24.1235 236.002 20.2835C242.658 16.3582 250.124 14.3955 258.402 14.3955C268.044 14.3955 276.364 16.8275 283.362 21.6915C290.444 26.4702 295.607 33.1262 298.85 41.6595H292.194ZM381.68 65.5955C381.68 68.6675 381.594 70.9715 381.424 72.5075H321.392C321.562 78.7368 322.928 83.9848 325.488 88.2515C328.048 92.5182 331.418 95.7182 335.6 97.8515C339.781 99.9848 344.346 101.052 349.296 101.052C356.122 101.052 361.84 99.3875 366.448 96.0595C371.056 92.6462 373.957 88.0382 375.152 82.2355H381.168C379.802 89.3182 376.304 95.0782 370.672 99.5155C365.04 103.868 357.914 106.044 349.296 106.044C342.81 106.044 337.008 104.593 331.888 101.692C326.768 98.7902 322.757 94.6515 319.856 89.2755C316.954 83.8142 315.504 77.4568 315.504 70.2035C315.504 62.9502 316.912 56.6355 319.728 51.2595C322.629 45.8835 326.64 41.7875 331.76 38.9715C336.88 36.0702 342.725 34.6195 349.296 34.6195C355.952 34.6195 361.712 36.0702 366.576 38.9715C371.525 41.7875 375.28 45.5848 377.84 50.3635C380.4 55.0568 381.68 60.1342 381.68 65.5955ZM375.92 67.7715C376.176 61.6275 375.066 56.4222 372.592 52.1555C370.202 47.8888 366.917 44.7315 362.736 42.6835C358.554 40.5502 354.032 39.4835 349.168 39.4835C344.304 39.4835 339.781 40.5502 335.6 42.6835C331.504 44.7315 328.133 47.8888 325.488 52.1555C322.928 56.4222 321.562 61.6275 321.392 67.7715H375.92ZM430.448 34.1075C438.725 34.1075 445.466 36.6675 450.672 41.7875C455.877 46.8222 458.48 54.3315 458.48 64.3155V105.02H452.848V64.6995C452.848 56.4222 450.757 50.1075 446.576 45.7555C442.394 41.3182 436.72 39.0995 429.552 39.0995C422.042 39.0995 416.026 41.4888 411.504 46.2675C407.066 51.0462 404.848 58.1288 404.848 67.5155V105.02H399.088V35.5155H404.848V50.2355C406.81 45.0302 410.053 41.0622 414.576 38.3315C419.184 35.5155 424.474 34.1075 430.448 34.1075ZM537.59 35.5155V105.02H531.83V89.9155C529.867 95.2062 526.582 99.2595 521.974 102.076C517.451 104.806 512.246 106.172 506.358 106.172C498.08 106.172 491.296 103.654 486.006 98.6195C480.8 93.4995 478.198 85.9475 478.198 75.9635V35.5155H483.83V75.5795C483.83 83.8568 485.92 90.2142 490.102 94.6515C494.283 99.0035 499.958 101.18 507.126 101.18C514.635 101.18 520.608 98.7902 525.046 94.0115C529.568 89.2328 531.83 82.1502 531.83 72.7635V35.5155H537.59ZM561.532 20.0275C560.166 20.0275 559.014 19.6008 558.076 18.7475C557.137 17.8088 556.668 16.5715 556.668 15.0355C556.668 13.5848 557.137 12.3902 558.076 11.4515C559.014 10.5128 560.166 10.0435 561.532 10.0435C562.897 10.0435 564.049 10.5128 564.988 11.4515C565.926 12.3902 566.396 13.5848 566.396 15.0355C566.396 16.5715 565.926 17.8088 564.988 18.7475C564.049 19.6008 562.897 20.0275 561.532 20.0275ZM564.348 35.5155V105.02H558.588V35.5155H564.348ZM616.823 34.1075C625.1 34.1075 631.841 36.6675 637.047 41.7875C642.252 46.8222 644.855 54.3315 644.855 64.3155V105.02H639.223V64.6995C639.223 56.4222 637.132 50.1075 632.951 45.7555C628.769 41.3182 623.095 39.0995 615.927 39.0995C608.417 39.0995 602.401 41.4888 597.879 46.2675C593.441 51.0462 591.223 58.1288 591.223 67.5155V105.02H585.463V35.5155H591.223V50.2355C593.185 45.0302 596.428 41.0622 600.951 38.3315C605.559 35.5155 610.849 34.1075 616.823 34.1075ZM727.805 65.5955C727.805 68.6675 727.719 70.9715 727.549 72.5075H667.517C667.687 78.7368 669.053 83.9848 671.613 88.2515C674.173 92.5182 677.543 95.7182 681.725 97.8515C685.906 99.9848 690.471 101.052 695.421 101.052C702.247 101.052 707.965 99.3875 712.573 96.0595C717.181 92.6462 720.082 88.0382 721.277 82.2355H727.293C725.927 89.3182 722.429 95.0782 716.797 99.5155C711.165 103.868 704.039 106.044 695.421 106.044C688.935 106.044 683.133 104.593 678.013 101.692C672.893 98.7902 668.882 94.6515 665.981 89.2755C663.079 83.8142 661.629 77.4568 661.629 70.2035C661.629 62.9502 663.037 56.6355 665.853 51.2595C668.754 45.8835 672.765 41.7875 677.885 38.9715C683.005 36.0702 688.85 34.6195 695.421 34.6195C702.077 34.6195 707.837 36.0702 712.701 38.9715C717.65 41.7875 721.405 45.5848 723.965 50.3635C726.525 55.0568 727.805 60.1342 727.805 65.5955ZM722.045 67.7715C722.301 61.6275 721.191 56.4222 718.717 52.1555C716.327 47.8888 713.042 44.7315 708.861 42.6835C704.679 40.5502 700.157 39.4835 695.293 39.4835C690.429 39.4835 685.906 40.5502 681.725 42.6835C677.629 44.7315 674.258 47.8888 671.613 52.1555C669.053 56.4222 667.687 61.6275 667.517 67.7715H722.045Z" fill="#0F172A"/>
<path d="M808.701 41.6595C806.397 37.2222 803.197 33.8942 799.101 31.6755C795.005 29.3715 790.269 28.2195 784.893 28.2195C779.005 28.2195 773.757 29.5422 769.149 32.1875C764.541 34.8328 760.914 38.5875 758.269 43.4515C755.709 48.3155 754.429 53.9475 754.429 60.3475C754.429 66.7475 755.709 72.4222 758.269 77.3715C760.914 82.2355 764.541 85.9902 769.149 88.6355C773.757 91.2808 779.005 92.6035 784.893 92.6035C792.829 92.6035 799.271 90.3848 804.221 85.9475C809.17 81.5102 812.199 75.4942 813.309 67.8995H779.901V56.2515H828.925V67.6435C827.986 74.5555 825.511 80.9128 821.501 86.7155C817.575 92.5182 812.413 97.1688 806.013 100.668C799.698 104.081 792.658 105.788 784.893 105.788C776.53 105.788 768.893 103.868 761.981 100.028C755.069 96.1022 749.565 90.6835 745.469 83.7715C741.458 76.8595 739.453 69.0515 739.453 60.3475C739.453 51.6435 741.458 43.8355 745.469 36.9235C749.565 30.0115 755.069 24.6355 761.981 20.7955C768.978 16.8702 776.615 14.9075 784.893 14.9075C794.365 14.9075 802.77 17.2542 810.109 21.9475C817.533 26.5555 822.909 33.1262 826.237 41.6595H808.701ZM850.741 25.1475C848.095 25.1475 845.877 24.2515 844.085 22.4595C842.293 20.6675 841.397 18.4488 841.397 15.8035C841.397 13.1582 842.293 10.9395 844.085 9.1475C845.877 7.3555 848.095 6.4595 850.741 6.4595C853.301 6.4595 855.477 7.3555 857.269 9.1475C859.061 10.9395 859.957 13.1582 859.957 15.8035C859.957 18.4488 859.061 20.6675 857.269 22.4595C855.477 24.2515 853.301 25.1475 850.741 25.1475ZM857.909 34.4915V105.02H843.317V34.4915H857.909ZM905.483 33.3395C910.944 33.3395 915.765 34.4488 919.947 36.6675C924.213 38.8008 927.541 41.4888 929.931 44.7315V34.4915H944.651V106.172C944.651 112.657 943.285 118.417 940.555 123.452C937.824 128.572 933.856 132.582 928.651 135.484C923.531 138.385 917.387 139.836 910.219 139.836C900.661 139.836 892.725 137.574 886.411 133.052C880.096 128.614 876.512 122.556 875.659 114.876H890.123C891.232 118.545 893.579 121.489 897.163 123.708C900.832 126.012 905.184 127.164 910.219 127.164C916.107 127.164 920.843 125.372 924.427 121.788C928.096 118.204 929.931 112.998 929.931 106.172V94.3955C927.456 97.7235 924.085 100.54 919.819 102.844C915.637 105.062 910.859 106.172 905.483 106.172C899.339 106.172 893.707 104.636 888.587 101.564C883.552 98.4062 879.541 94.0542 876.555 88.5075C873.653 82.8755 872.203 76.5182 872.203 69.4355C872.203 62.3528 873.653 56.0808 876.555 50.6195C879.541 45.1582 883.552 40.9342 888.587 37.9475C893.707 34.8755 899.339 33.3395 905.483 33.3395ZM929.931 69.6915C929.931 64.8275 928.907 60.6035 926.859 57.0195C924.896 53.4355 922.293 50.7048 919.051 48.8275C915.808 46.9502 912.309 46.0115 908.555 46.0115C904.8 46.0115 901.301 46.9502 898.059 48.8275C894.816 50.6195 892.171 53.3075 890.123 56.8915C888.16 60.3902 887.179 64.5715 887.179 69.4355C887.179 74.2995 888.16 78.5662 890.123 82.2355C892.171 85.9048 894.816 88.7208 898.059 90.6835C901.387 92.5608 904.885 93.4995 908.555 93.4995C912.309 93.4995 915.808 92.5608 919.051 90.6835C922.293 88.8062 924.896 86.0755 926.859 82.4915C928.907 78.8222 929.931 74.5555 929.931 69.6915ZM989.417 106.172C983.87 106.172 978.878 105.19 974.441 103.228C970.089 101.18 966.633 98.4488 964.073 95.0355C961.513 91.5368 960.147 87.6542 959.977 83.3875H975.081C975.337 86.3742 976.745 88.8915 979.305 90.9395C981.95 92.9022 985.235 93.8835 989.161 93.8835C993.257 93.8835 996.414 93.1155 998.633 91.5795C1000.94 89.9582 1002.09 87.9102 1002.09 85.4355C1002.09 82.7902 1000.81 80.8275 998.249 79.5475C995.774 78.2675 991.806 76.8595 986.345 75.3235C981.054 73.8728 976.745 72.4648 973.417 71.0995C970.089 69.7342 967.187 67.6435 964.713 64.8275C962.323 62.0115 961.129 58.2995 961.129 53.6915C961.129 49.9368 962.238 46.5235 964.457 43.4515C966.675 40.2942 969.833 37.8195 973.929 36.0275C978.11 34.2355 982.889 33.3395 988.265 33.3395C996.286 33.3395 1002.73 35.3875 1007.59 39.4835C1012.54 43.4942 1015.19 48.9982 1015.53 55.9955H1000.94C1000.68 52.8382 999.401 50.3208 997.097 48.4435C994.793 46.5662 991.678 45.6275 987.753 45.6275C983.913 45.6275 980.969 46.3528 978.921 47.8035C976.873 49.2542 975.849 51.1742 975.849 53.5635C975.849 55.4408 976.531 57.0195 977.897 58.2995C979.262 59.5795 980.926 60.6035 982.889 61.3715C984.851 62.0542 987.753 62.9502 991.593 64.0595C996.713 65.4248 1000.89 66.8328 1004.14 68.2835C1007.46 69.6488 1010.32 71.6968 1012.71 74.4275C1015.1 77.1582 1016.34 80.7848 1016.42 85.3075C1016.42 89.3182 1015.32 92.9022 1013.1 96.0595C1010.88 99.2168 1007.72 101.692 1003.62 103.484C999.614 105.276 994.878 106.172 989.417 106.172Z" fill="#5B6EFF"/>
</svg>
