<svg width="197" height="113" viewBox="0 0 197 113" fill="none" xmlns="http://www.w3.org/2000/svg">
<path d="M76.8654 11.5143C63.9954 7.28679 51.661 8.9058 37.8679 14.9625C11.0369 26.7444 -1.43324 57.7465 10.2705 81.3202C21.9743 104.894 51.6675 113.989 78.4985 102.207C101.088 92.288 113.075 73.9539 109.403 53.215" stroke="#5B6EFF" stroke-width="11.5"/>
<path d="M120.601 101.574C133.39 105.893 145.607 104.347 159.238 98.3613C185.754 86.7177 197.897 55.7153 186.128 32.0087C174.358 8.30221 144.856 -1.00183 118.34 10.6418C96.016 20.4446 84.2623 38.7499 88.0486 59.5642" stroke="#5B6EFF" stroke-width="11.5"/>
<path d="M108.762 38.0195C114.063 38.0195 118.362 42.1674 118.362 47.2841C118.362 52.4008 114.063 56.5488 108.762 56.5488C103.46 56.5486 99.1619 52.4007 99.1619 47.2841C99.1619 42.1676 103.46 38.0197 108.762 38.0195ZM108.362 44.0195C106.595 44.0195 105.162 45.402 105.162 47.1074C105.162 48.813 106.595 50.1963 108.362 50.1963C110.129 50.1962 111.562 48.8129 111.562 47.1074C111.562 45.402 110.129 44.0196 108.362 44.0195Z" fill="#5B6EFF"/>
<path d="M82.7615 4.0195C88.0635 4.0195 92.3621 8.16745 92.3621 13.2841C92.3621 18.4008 88.0634 22.5488 82.7615 22.5488C77.4598 22.5486 73.1619 18.4007 73.1619 13.2841C73.1619 8.16757 77.4598 4.0197 82.7615 4.0195ZM82.3621 10.0195C80.5949 10.0195 79.1621 11.402 79.1619 13.1074C79.1619 14.813 80.5948 16.1963 82.3621 16.1963C84.1293 16.1962 85.5623 14.8129 85.5623 13.1074C85.5621 11.402 84.1292 10.0196 82.3621 10.0195Z" fill="#5B6EFF"/>
<path d="M89.0818 54.2754C94.3838 54.2754 98.6824 58.4233 98.6824 63.54C98.6824 68.6567 94.3838 72.8047 89.0818 72.8047C83.7801 72.8045 79.4823 68.6566 79.4822 63.54C79.4822 58.4234 83.7801 54.2756 89.0818 54.2754ZM88.6824 60.2754C86.9152 60.2754 85.4824 61.6578 85.4822 63.3632C85.4822 65.0688 86.9151 66.4521 88.6824 66.4521C90.4496 66.452 91.8826 65.0688 91.8826 63.3632C91.8824 61.6579 90.4495 60.2755 88.6824 60.2754Z" fill="#5B6EFF"/>
<path d="M114.762 90.0195C120.063 90.0195 124.362 94.1674 124.362 99.2841C124.362 104.401 120.063 108.549 114.762 108.549C109.46 108.549 105.162 104.401 105.162 99.2841C105.162 94.1676 109.46 90.0197 114.762 90.0195ZM114.362 96.0195C112.595 96.0195 111.162 97.402 111.162 99.1074C111.162 100.813 112.595 102.196 114.362 102.196C116.129 102.196 117.562 100.813 117.562 99.1074C117.562 97.402 116.129 96.0196 114.362 96.0195Z" fill="#5B6EFF"/>
</svg>
