<svg width="802" height="134" viewBox="0 0 802 134" fill="none" xmlns="http://www.w3.org/2000/svg">
<path d="M77.44 35.2C74.88 28.4587 70.6133 23.0827 64.64 19.072C58.752 15.0613 51.7547 13.056 43.648 13.056C36.5653 13.056 30.1653 14.72 24.448 18.048C18.7307 21.376 14.208 26.112 10.88 32.256C7.55201 38.4 5.88801 45.568 5.88801 53.76C5.88801 61.952 7.55201 69.12 10.88 75.264C14.208 81.408 18.7307 86.144 24.448 89.472C30.1653 92.7147 36.5653 94.336 43.648 94.336C50.4747 94.336 56.6613 92.8 62.208 89.728C67.7547 86.656 72.192 82.304 75.52 76.672C78.848 70.9547 80.6827 64.2987 81.024 56.704H40.96V51.84H86.912V55.68C86.656 64.0427 84.6507 71.552 80.896 78.208C77.1413 84.864 72.0213 90.0693 65.536 93.824C59.0507 97.5787 51.7547 99.456 43.648 99.456C35.3707 99.456 27.904 97.536 21.248 93.696C14.592 89.7707 9.38668 84.352 5.63201 77.44C1.87735 70.4427 1.28746e-05 62.5493 1.28746e-05 53.76C1.28746e-05 44.8853 1.87735 36.992 5.63201 30.08C9.38668 23.0827 14.592 17.664 21.248 13.824C27.904 9.89866 35.3707 7.936 43.648 7.936C53.2907 7.936 61.6107 10.368 68.608 15.232C75.6907 20.0107 80.8534 26.6667 84.096 35.2H77.44ZM166.926 59.136C166.926 62.208 166.841 64.512 166.67 66.048H106.638C106.809 72.2773 108.174 77.5253 110.734 81.792C113.294 86.0587 116.665 89.2587 120.846 91.392C125.027 93.5253 129.593 94.592 134.542 94.592C141.369 94.592 147.086 92.928 151.694 89.6C156.302 86.1867 159.203 81.5787 160.398 75.776H166.414C165.049 82.8587 161.55 88.6187 155.918 93.056C150.286 97.408 143.161 99.584 134.542 99.584C128.057 99.584 122.254 98.1333 117.134 95.232C112.014 92.3307 108.003 88.192 105.102 82.816C102.201 77.3547 100.75 70.9973 100.75 63.744C100.75 56.4907 102.158 50.176 104.974 44.8C107.875 39.424 111.886 35.328 117.006 32.512C122.126 29.6107 127.971 28.16 134.542 28.16C141.198 28.16 146.958 29.6107 151.822 32.512C156.771 35.328 160.526 39.1253 163.086 43.904C165.646 48.5973 166.926 53.6747 166.926 59.136ZM161.166 61.312C161.422 55.168 160.313 49.9627 157.838 45.696C155.449 41.4293 152.163 38.272 147.982 36.224C143.801 34.0907 139.278 33.024 134.414 33.024C129.55 33.024 125.027 34.0907 120.846 36.224C116.75 38.272 113.379 41.4293 110.734 45.696C108.174 49.9627 106.809 55.168 106.638 61.312H161.166ZM215.694 27.648C223.971 27.648 230.713 30.208 235.918 35.328C241.123 40.3627 243.726 47.872 243.726 57.856V98.56H238.094V58.24C238.094 49.9627 236.003 43.648 231.822 39.296C227.641 34.8587 221.966 32.64 214.798 32.64C207.289 32.64 201.273 35.0293 196.75 39.808C192.313 44.5867 190.094 51.6693 190.094 61.056V98.56H184.334V29.056H190.094V43.776C192.057 38.5707 195.299 34.6027 199.822 31.872C204.43 29.056 209.721 27.648 215.694 27.648ZM322.836 29.056V98.56H317.076V83.456C315.113 88.7467 311.828 92.8 307.22 95.616C302.697 98.3467 297.492 99.712 291.604 99.712C283.327 99.712 276.543 97.1947 271.252 92.16C266.047 87.04 263.444 79.488 263.444 69.504V29.056H269.076V69.12C269.076 77.3973 271.167 83.7547 275.348 88.192C279.529 92.544 285.204 94.72 292.372 94.72C299.881 94.72 305.855 92.3307 310.292 87.552C314.815 82.7733 317.076 75.6907 317.076 66.304V29.056H322.836ZM346.778 13.568C345.413 13.568 344.261 13.1413 343.322 12.288C342.383 11.3493 341.914 10.112 341.914 8.576C341.914 7.12533 342.383 5.93066 343.322 4.992C344.261 4.05333 345.413 3.58399 346.778 3.58399C348.143 3.58399 349.295 4.05333 350.234 4.992C351.173 5.93066 351.642 7.12533 351.642 8.576C351.642 10.112 351.173 11.3493 350.234 12.288C349.295 13.1413 348.143 13.568 346.778 13.568ZM349.594 29.056V98.56H343.834V29.056H349.594ZM402.069 27.648C410.346 27.648 417.088 30.208 422.293 35.328C427.498 40.3627 430.101 47.872 430.101 57.856V98.56H424.469V58.24C424.469 49.9627 422.378 43.648 418.197 39.296C414.016 34.8587 408.341 32.64 401.173 32.64C393.664 32.64 387.648 35.0293 383.125 39.808C378.688 44.5867 376.469 51.6693 376.469 61.056V98.56H370.709V29.056H376.469V43.776C378.432 38.5707 381.674 34.6027 386.197 31.872C390.805 29.056 396.096 27.648 402.069 27.648ZM513.051 59.136C513.051 62.208 512.966 64.512 512.795 66.048H452.763C452.934 72.2773 454.299 77.5253 456.859 81.792C459.419 86.0587 462.79 89.2587 466.971 91.392C471.152 93.5253 475.718 94.592 480.667 94.592C487.494 94.592 493.211 92.928 497.819 89.6C502.427 86.1867 505.328 81.5787 506.523 75.776H512.539C511.174 82.8587 507.675 88.6187 502.043 93.056C496.411 97.408 489.286 99.584 480.667 99.584C474.182 99.584 468.379 98.1333 463.259 95.232C458.139 92.3307 454.128 88.192 451.227 82.816C448.326 77.3547 446.875 70.9973 446.875 63.744C446.875 56.4907 448.283 50.176 451.099 44.8C454 39.424 458.011 35.328 463.131 32.512C468.251 29.6107 474.096 28.16 480.667 28.16C487.323 28.16 493.083 29.6107 497.947 32.512C502.896 35.328 506.651 39.1253 509.211 43.904C511.771 48.5973 513.051 53.6747 513.051 59.136ZM507.291 61.312C507.547 55.168 506.438 49.9627 503.963 45.696C501.574 41.4293 498.288 38.272 494.107 36.224C489.926 34.0907 485.403 33.024 480.539 33.024C475.675 33.024 471.152 34.0907 466.971 36.224C462.875 38.272 459.504 41.4293 456.859 45.696C454.299 49.9627 452.934 55.168 452.763 61.312H507.291Z" fill="#0F172A"/>
<path d="M593.947 35.2C591.643 30.7627 588.443 27.4347 584.347 25.216C580.251 22.912 575.515 21.76 570.139 21.76C564.251 21.76 559.003 23.0827 554.395 25.728C549.787 28.3733 546.16 32.128 543.515 36.992C540.955 41.856 539.675 47.488 539.675 53.888C539.675 60.288 540.955 65.9627 543.515 70.912C546.16 75.776 549.787 79.5307 554.395 82.176C559.003 84.8213 564.251 86.144 570.139 86.144C578.075 86.144 584.518 83.9253 589.467 79.488C594.416 75.0507 597.446 69.0347 598.555 61.44H565.147V49.792H614.171V61.184C613.232 68.096 610.758 74.4533 606.747 80.256C602.822 86.0587 597.659 90.7093 591.259 94.208C584.944 97.6213 577.904 99.328 570.139 99.328C561.776 99.328 554.139 97.408 547.227 93.568C540.315 89.6427 534.811 84.224 530.715 77.312C526.704 70.4 524.699 62.592 524.699 53.888C524.699 45.184 526.704 37.376 530.715 30.464C534.811 23.552 540.315 18.176 547.227 14.336C554.224 10.4107 561.862 8.44799 570.139 8.44799C579.611 8.44799 588.016 10.7947 595.355 15.488C602.779 20.096 608.155 26.6667 611.483 35.2H593.947ZM635.987 18.688C633.342 18.688 631.123 17.792 629.331 16C627.539 14.208 626.643 11.9893 626.643 9.34399C626.643 6.69866 627.539 4.47999 629.331 2.688C631.123 0.895994 633.342 -7.62939e-06 635.987 -7.62939e-06C638.547 -7.62939e-06 640.723 0.895994 642.515 2.688C644.307 4.47999 645.203 6.69866 645.203 9.34399C645.203 11.9893 644.307 14.208 642.515 16C640.723 17.792 638.547 18.688 635.987 18.688ZM643.155 28.032V98.56H628.563V28.032H643.155ZM690.729 26.88C696.19 26.88 701.012 27.9893 705.193 30.208C709.46 32.3413 712.788 35.0293 715.177 38.272V28.032H729.897V99.712C729.897 106.197 728.532 111.957 725.801 116.992C723.07 122.112 719.102 126.123 713.897 129.024C708.777 131.925 702.633 133.376 695.465 133.376C685.908 133.376 677.972 131.115 671.657 126.592C665.342 122.155 661.758 116.096 660.905 108.416H675.369C676.478 112.085 678.825 115.029 682.409 117.248C686.078 119.552 690.43 120.704 695.465 120.704C701.353 120.704 706.089 118.912 709.673 115.328C713.342 111.744 715.177 106.539 715.177 99.712V87.936C712.702 91.264 709.332 94.08 705.065 96.384C700.884 98.6027 696.105 99.712 690.729 99.712C684.585 99.712 678.953 98.176 673.833 95.104C668.798 91.9467 664.788 87.5947 661.801 82.048C658.9 76.416 657.449 70.0587 657.449 62.976C657.449 55.8933 658.9 49.6213 661.801 44.16C664.788 38.6987 668.798 34.4747 673.833 31.488C678.953 28.416 684.585 26.88 690.729 26.88ZM715.177 63.232C715.177 58.368 714.153 54.144 712.105 50.56C710.142 46.976 707.54 44.2453 704.297 42.368C701.054 40.4907 697.556 39.552 693.801 39.552C690.046 39.552 686.548 40.4907 683.305 42.368C680.062 44.16 677.417 46.848 675.369 50.432C673.406 53.9307 672.425 58.112 672.425 62.976C672.425 67.84 673.406 72.1067 675.369 75.776C677.417 79.4453 680.062 82.2613 683.305 84.224C686.633 86.1013 690.132 87.04 693.801 87.04C697.556 87.04 701.054 86.1013 704.297 84.224C707.54 82.3467 710.142 79.616 712.105 76.032C714.153 72.3627 715.177 68.096 715.177 63.232ZM774.663 99.712C769.116 99.712 764.124 98.7307 759.687 96.768C755.335 94.72 751.879 91.9893 749.319 88.576C746.759 85.0773 745.394 81.1947 745.223 76.928H760.327C760.583 79.9147 761.991 82.432 764.551 84.48C767.196 86.4427 770.482 87.424 774.407 87.424C778.503 87.424 781.66 86.656 783.879 85.12C786.183 83.4987 787.335 81.4507 787.335 78.976C787.335 76.3307 786.055 74.368 783.495 73.088C781.02 71.808 777.052 70.4 771.591 68.864C766.3 67.4133 761.991 66.0053 758.663 64.64C755.335 63.2747 752.434 61.184 749.959 58.368C747.57 55.552 746.375 51.84 746.375 47.232C746.375 43.4773 747.484 40.064 749.703 36.992C751.922 33.8347 755.079 31.36 759.175 29.568C763.356 27.776 768.135 26.88 773.511 26.88C781.532 26.88 787.975 28.928 792.839 33.024C797.788 37.0347 800.434 42.5387 800.775 49.536H786.183C785.927 46.3787 784.647 43.8613 782.343 41.984C780.039 40.1067 776.924 39.168 772.999 39.168C769.159 39.168 766.215 39.8933 764.167 41.344C762.119 42.7947 761.095 44.7147 761.095 47.104C761.095 48.9813 761.778 50.56 763.143 51.84C764.508 53.12 766.172 54.144 768.135 54.912C770.098 55.5947 772.999 56.4907 776.839 57.6C781.959 58.9653 786.14 60.3733 789.383 61.824C792.711 63.1893 795.57 65.2373 797.959 67.968C800.348 70.6987 801.586 74.3253 801.671 78.848C801.671 82.8587 800.562 86.4427 798.343 89.6C796.124 92.7573 792.967 95.232 788.871 97.024C784.86 98.816 780.124 99.712 774.663 99.712Z" fill="#5B6EFF"/>
</svg>
